<svg xmlns="http://www.w3.org/2000/svg" viewBox="0 0 316 396"  fill="none"><path fill="url(#a)" d="m307.7 197.9-53.2 39 53.2 39-149.5 109.7-14.3-10.5c-16-11.7-16-35.6 0-47.3l38.3-28.1c6.3-4.6 10.1-11.2 11.5-18.1l-35.5 26-14.4-10.6c-16-11.7-16-35.6 0-47.4l38.3-28.1c2-1.4 2.8-6.6 2.9-13.5l-26.9 19.7-14.3-10.5c-16-11.7-16-35.6 0-47.3l38.3-28.1c16-11.7 16-35.6 0-47.3l-38.3-28.1c-16-11.7-16-35.6 0-47.3l14.3-10.5 149.5 109.6-54.3 39.8z"/><path fill="url(#b)" d="M315.7 197.9c0-2.5-1.2-4.9-3.3-6.5L266.8 158l45.6-33.4c2.1-1.5 3.3-3.9 3.3-6.5 0-2.5-1.2-4.9-3.3-6.5L162.9 2.1c-2.8-2.1-6.6-2.1-9.5 0L3.9 111.7c-2.1 1.5-3.3 3.9-3.3 6.5s1.2 4.9 3.3 6.5l149.5 109.6c2.8 2.1 6.6 2.1 9.5 0l90.4-66.3 40.8 29.9-45.6 33.4-16.8 12.3-.1.1-73.4 53.8-136-99.7 28.7-21.1c3.6-2.6 4.3-7.6 1.7-11.2s-7.6-4.3-11.2-1.7L3.9 191.3c-2.1 1.5-3.3 3.9-3.3 6.5 0 2.5 1.2 4.9 3.3 6.5L153.4 314c2.8 2.1 6.6 2.1 9.5 0l90.4-66.3 40.8 29.9-136 99.7-136-99.7 28.7-21.1c3.6-2.6 4.3-7.6 1.7-11.2s-7.6-4.3-11.2-1.7L3.8 271.1c-2.1 1.5-3.3 3.9-3.3 6.5 0 2.5 1.2 4.9 3.3 6.5l149.5 109.6c1.4 1 3.1 1.5 4.7 1.5s3.3-.5 4.7-1.5l149.5-109.6c2.1-1.5 3.3-3.9 3.3-6.5 0-2.5-1.2-4.9-3.3-6.5l-45.6-33.4 45.6-33.4c2.2-1.5 3.5-3.9 3.5-6.4m-67.1-46.3L231.7 164l-.1.1-73.4 53.8-136-99.7 136-99.7 136 99.7z"/><defs><linearGradient id="a" x1="219.746" x2="219.746" y1="370.047" y2="34.926" gradientUnits="userSpaceOnUse"><stop stop-color="#5961F9"/><stop offset="1" stop-color="#EE9AE5"/></linearGradient><linearGradient id="b" x1="158.1" x2="158.1" y1=".525" y2="395.2" gradientUnits="userSpaceOnUse"><stop stop-color="#E8D07A"/><stop offset="1" stop-color="#5312D6"/></linearGradient></defs></svg>